<mxfile host="app.diagrams.net" agent="Mozilla/5.0 (Windows NT 10.0; Win64; x64) AppleWebKit/537.36 (KHTML, like Gecko) Chrome/122.0.6261.95 Safari/537.36" version="26.2.14">
  <diagram name="第 1 页" id="fVzsJx4XiAYBmPSDH2KR">
    <mxGraphModel dx="655" dy="427" grid="1" gridSize="10" guides="1" tooltips="1" connect="1" arrows="1" fold="1" page="1" pageScale="1" pageWidth="827" pageHeight="1169" math="0" shadow="0">
      <root>
        <mxCell id="0" />
        <mxCell id="1" parent="0" />
        <mxCell id="kUR12PD4C_yZ0IXR-u0L-6" value="" style="shape=flexArrow;endArrow=classic;startArrow=classic;html=1;rounded=0;width=25.833333333333336;endSize=5.964444444444444;fillColor=#cdeb8b;strokeColor=#36393d;startSize=5.964444444444444;" edge="1" parent="1">
          <mxGeometry width="100" height="100" relative="1" as="geometry">
            <mxPoint x="320" y="480" as="sourcePoint" />
            <mxPoint x="520" y="480" as="targetPoint" />
          </mxGeometry>
        </mxCell>
        <mxCell id="kUR12PD4C_yZ0IXR-u0L-5" value="" style="shape=flexArrow;endArrow=classic;startArrow=classic;html=1;rounded=0;width=25.833333333333336;endSize=5.964444444444444;fillColor=#cdeb8b;strokeColor=#36393d;startSize=5.964444444444444;" edge="1" parent="1">
          <mxGeometry width="100" height="100" relative="1" as="geometry">
            <mxPoint x="320" y="279.16999999999996" as="sourcePoint" />
            <mxPoint x="520" y="279.16999999999996" as="targetPoint" />
          </mxGeometry>
        </mxCell>
        <mxCell id="dK6BjwZrTyGDKxUqqTmI-32" value="" style="rounded=0;whiteSpace=wrap;html=1;fillColor=#fff2cc;strokeColor=#d6b656;" parent="1" vertex="1">
          <mxGeometry x="520" y="80" width="200" height="480" as="geometry" />
        </mxCell>
        <mxCell id="dK6BjwZrTyGDKxUqqTmI-33" value="" style="rounded=0;whiteSpace=wrap;html=1;fillColor=#f9f7ed;strokeColor=#36393d;" parent="1" vertex="1">
          <mxGeometry x="540" y="120" width="160" height="430" as="geometry" />
        </mxCell>
        <mxCell id="dK6BjwZrTyGDKxUqqTmI-141" value="" style="shape=flexArrow;endArrow=classic;startArrow=classic;html=1;rounded=0;width=25.833333333333336;endSize=5.964444444444444;fillColor=#cdeb8b;strokeColor=#36393d;startSize=5.964444444444444;" parent="1" edge="1">
          <mxGeometry width="100" height="100" relative="1" as="geometry">
            <mxPoint x="320" y="169.55999999999997" as="sourcePoint" />
            <mxPoint x="520" y="169.55999999999997" as="targetPoint" />
          </mxGeometry>
        </mxCell>
        <mxCell id="dK6BjwZrTyGDKxUqqTmI-2" value="" style="rounded=0;whiteSpace=wrap;html=1;fillColor=#fff2cc;strokeColor=#d6b656;" parent="1" vertex="1">
          <mxGeometry x="120" y="80" width="200" height="280" as="geometry" />
        </mxCell>
        <mxCell id="dK6BjwZrTyGDKxUqqTmI-17" value="" style="rounded=0;whiteSpace=wrap;html=1;fillColor=#f9f7ed;strokeColor=#36393d;" parent="1" vertex="1">
          <mxGeometry x="140" y="120" width="160" height="230" as="geometry" />
        </mxCell>
        <mxCell id="dK6BjwZrTyGDKxUqqTmI-16" value="" style="group" parent="1" vertex="1" connectable="0">
          <mxGeometry x="180" y="140" width="80" height="80" as="geometry" />
        </mxCell>
        <mxCell id="dK6BjwZrTyGDKxUqqTmI-3" value="" style="ellipse;whiteSpace=wrap;html=1;aspect=fixed;fillColor=#dae8fc;strokeColor=#6c8ebf;" parent="dK6BjwZrTyGDKxUqqTmI-16" vertex="1">
          <mxGeometry width="80" height="80" as="geometry" />
        </mxCell>
        <mxCell id="dK6BjwZrTyGDKxUqqTmI-4" value="" style="ellipse;whiteSpace=wrap;html=1;aspect=fixed;fillColor=default;strokeColor=#6c8ebf;" parent="dK6BjwZrTyGDKxUqqTmI-16" vertex="1">
          <mxGeometry x="15" y="15" width="50" height="50" as="geometry" />
        </mxCell>
        <mxCell id="dK6BjwZrTyGDKxUqqTmI-5" value="" style="endArrow=none;html=1;rounded=0;entryX=0.5;entryY=0;entryDx=0;entryDy=0;exitX=0.5;exitY=0;exitDx=0;exitDy=0;fillColor=#dae8fc;strokeColor=#6c8ebf;" parent="dK6BjwZrTyGDKxUqqTmI-16" source="dK6BjwZrTyGDKxUqqTmI-4" target="dK6BjwZrTyGDKxUqqTmI-3" edge="1">
          <mxGeometry width="50" height="50" relative="1" as="geometry">
            <mxPoint x="-160" y="60" as="sourcePoint" />
            <mxPoint x="-110" y="10" as="targetPoint" />
          </mxGeometry>
        </mxCell>
        <mxCell id="dK6BjwZrTyGDKxUqqTmI-6" value="" style="endArrow=none;html=1;rounded=0;entryX=1;entryY=0.5;entryDx=0;entryDy=0;fillColor=#dae8fc;strokeColor=#6c8ebf;" parent="dK6BjwZrTyGDKxUqqTmI-16" source="dK6BjwZrTyGDKxUqqTmI-4" target="dK6BjwZrTyGDKxUqqTmI-3" edge="1">
          <mxGeometry width="50" height="50" relative="1" as="geometry">
            <mxPoint x="10" y="80" as="sourcePoint" />
            <mxPoint x="60" y="30" as="targetPoint" />
          </mxGeometry>
        </mxCell>
        <mxCell id="dK6BjwZrTyGDKxUqqTmI-7" value="" style="endArrow=none;html=1;rounded=0;entryX=1;entryY=0.5;entryDx=0;entryDy=0;fillColor=#dae8fc;strokeColor=#6c8ebf;" parent="dK6BjwZrTyGDKxUqqTmI-16" edge="1">
          <mxGeometry width="50" height="50" relative="1" as="geometry">
            <mxPoint y="39.860000000000014" as="sourcePoint" />
            <mxPoint x="15" y="39.860000000000014" as="targetPoint" />
          </mxGeometry>
        </mxCell>
        <mxCell id="dK6BjwZrTyGDKxUqqTmI-8" value="" style="endArrow=none;html=1;rounded=0;entryX=0.5;entryY=0;entryDx=0;entryDy=0;exitX=0.5;exitY=0;exitDx=0;exitDy=0;fillColor=#dae8fc;strokeColor=#6c8ebf;" parent="dK6BjwZrTyGDKxUqqTmI-16" edge="1">
          <mxGeometry width="50" height="50" relative="1" as="geometry">
            <mxPoint x="39.860000000000014" y="80" as="sourcePoint" />
            <mxPoint x="39.860000000000014" y="65" as="targetPoint" />
          </mxGeometry>
        </mxCell>
        <mxCell id="dK6BjwZrTyGDKxUqqTmI-9" value="" style="endArrow=none;html=1;rounded=0;exitX=0;exitY=0;exitDx=0;exitDy=0;entryX=0;entryY=0;entryDx=0;entryDy=0;fillColor=#dae8fc;strokeColor=#6c8ebf;" parent="dK6BjwZrTyGDKxUqqTmI-16" source="dK6BjwZrTyGDKxUqqTmI-3" target="dK6BjwZrTyGDKxUqqTmI-4" edge="1">
          <mxGeometry width="50" height="50" relative="1" as="geometry">
            <mxPoint x="10" y="80" as="sourcePoint" />
            <mxPoint x="60" y="30" as="targetPoint" />
          </mxGeometry>
        </mxCell>
        <mxCell id="dK6BjwZrTyGDKxUqqTmI-10" value="" style="endArrow=none;html=1;rounded=0;entryX=1;entryY=1;entryDx=0;entryDy=0;exitX=1;exitY=1;exitDx=0;exitDy=0;fillColor=#dae8fc;strokeColor=#6c8ebf;" parent="dK6BjwZrTyGDKxUqqTmI-16" source="dK6BjwZrTyGDKxUqqTmI-4" target="dK6BjwZrTyGDKxUqqTmI-3" edge="1">
          <mxGeometry width="50" height="50" relative="1" as="geometry">
            <mxPoint x="65.00233047033623" y="55.322330470336226" as="sourcePoint" />
            <mxPoint x="74.67999999999995" y="65" as="targetPoint" />
          </mxGeometry>
        </mxCell>
        <mxCell id="dK6BjwZrTyGDKxUqqTmI-11" style="edgeStyle=none;rounded=0;orthogonalLoop=1;jettySize=auto;html=1;exitX=1;exitY=0;exitDx=0;exitDy=0;" parent="dK6BjwZrTyGDKxUqqTmI-16" source="dK6BjwZrTyGDKxUqqTmI-3" target="dK6BjwZrTyGDKxUqqTmI-3" edge="1">
          <mxGeometry relative="1" as="geometry" />
        </mxCell>
        <mxCell id="dK6BjwZrTyGDKxUqqTmI-12" value="" style="endArrow=none;html=1;rounded=0;entryX=1;entryY=0;entryDx=0;entryDy=0;exitX=1;exitY=0;exitDx=0;exitDy=0;fillColor=#dae8fc;strokeColor=#6c8ebf;" parent="dK6BjwZrTyGDKxUqqTmI-16" source="dK6BjwZrTyGDKxUqqTmI-4" target="dK6BjwZrTyGDKxUqqTmI-3" edge="1">
          <mxGeometry width="50" height="50" relative="1" as="geometry">
            <mxPoint x="10" y="80" as="sourcePoint" />
            <mxPoint x="60" y="30" as="targetPoint" />
          </mxGeometry>
        </mxCell>
        <mxCell id="dK6BjwZrTyGDKxUqqTmI-13" value="" style="endArrow=none;html=1;rounded=0;exitX=0;exitY=1;exitDx=0;exitDy=0;entryX=0;entryY=1;entryDx=0;entryDy=0;fillColor=#dae8fc;strokeColor=#6c8ebf;" parent="dK6BjwZrTyGDKxUqqTmI-16" source="dK6BjwZrTyGDKxUqqTmI-3" target="dK6BjwZrTyGDKxUqqTmI-4" edge="1">
          <mxGeometry width="50" height="50" relative="1" as="geometry">
            <mxPoint x="10" y="80" as="sourcePoint" />
            <mxPoint x="60" y="30" as="targetPoint" />
          </mxGeometry>
        </mxCell>
        <mxCell id="dK6BjwZrTyGDKxUqqTmI-15" value="ring" style="text;html=1;align=center;verticalAlign=middle;resizable=0;points=[];autosize=1;strokeColor=none;fillColor=none;" parent="dK6BjwZrTyGDKxUqqTmI-16" vertex="1">
          <mxGeometry x="20" y="25" width="40" height="30" as="geometry" />
        </mxCell>
        <mxCell id="dK6BjwZrTyGDKxUqqTmI-18" value="" style="group" parent="1" vertex="1" connectable="0">
          <mxGeometry x="180" y="250" width="80" height="80" as="geometry" />
        </mxCell>
        <mxCell id="dK6BjwZrTyGDKxUqqTmI-19" value="" style="ellipse;whiteSpace=wrap;html=1;aspect=fixed;fillColor=#dae8fc;strokeColor=#6c8ebf;" parent="dK6BjwZrTyGDKxUqqTmI-18" vertex="1">
          <mxGeometry width="80" height="80" as="geometry" />
        </mxCell>
        <mxCell id="dK6BjwZrTyGDKxUqqTmI-20" value="" style="ellipse;whiteSpace=wrap;html=1;aspect=fixed;fillColor=default;strokeColor=#6c8ebf;" parent="dK6BjwZrTyGDKxUqqTmI-18" vertex="1">
          <mxGeometry x="15" y="15" width="50" height="50" as="geometry" />
        </mxCell>
        <mxCell id="dK6BjwZrTyGDKxUqqTmI-21" value="" style="endArrow=none;html=1;rounded=0;entryX=0.5;entryY=0;entryDx=0;entryDy=0;exitX=0.5;exitY=0;exitDx=0;exitDy=0;fillColor=#dae8fc;strokeColor=#6c8ebf;" parent="dK6BjwZrTyGDKxUqqTmI-18" source="dK6BjwZrTyGDKxUqqTmI-20" target="dK6BjwZrTyGDKxUqqTmI-19" edge="1">
          <mxGeometry width="50" height="50" relative="1" as="geometry">
            <mxPoint x="-160" y="60" as="sourcePoint" />
            <mxPoint x="-110" y="10" as="targetPoint" />
          </mxGeometry>
        </mxCell>
        <mxCell id="dK6BjwZrTyGDKxUqqTmI-22" value="" style="endArrow=none;html=1;rounded=0;entryX=1;entryY=0.5;entryDx=0;entryDy=0;fillColor=#dae8fc;strokeColor=#6c8ebf;" parent="dK6BjwZrTyGDKxUqqTmI-18" source="dK6BjwZrTyGDKxUqqTmI-20" target="dK6BjwZrTyGDKxUqqTmI-19" edge="1">
          <mxGeometry width="50" height="50" relative="1" as="geometry">
            <mxPoint x="10" y="80" as="sourcePoint" />
            <mxPoint x="60" y="30" as="targetPoint" />
          </mxGeometry>
        </mxCell>
        <mxCell id="dK6BjwZrTyGDKxUqqTmI-23" value="" style="endArrow=none;html=1;rounded=0;entryX=1;entryY=0.5;entryDx=0;entryDy=0;fillColor=#dae8fc;strokeColor=#6c8ebf;" parent="dK6BjwZrTyGDKxUqqTmI-18" edge="1">
          <mxGeometry width="50" height="50" relative="1" as="geometry">
            <mxPoint y="39.860000000000014" as="sourcePoint" />
            <mxPoint x="15" y="39.860000000000014" as="targetPoint" />
          </mxGeometry>
        </mxCell>
        <mxCell id="dK6BjwZrTyGDKxUqqTmI-24" value="" style="endArrow=none;html=1;rounded=0;entryX=0.5;entryY=0;entryDx=0;entryDy=0;exitX=0.5;exitY=0;exitDx=0;exitDy=0;fillColor=#dae8fc;strokeColor=#6c8ebf;" parent="dK6BjwZrTyGDKxUqqTmI-18" edge="1">
          <mxGeometry width="50" height="50" relative="1" as="geometry">
            <mxPoint x="39.860000000000014" y="80" as="sourcePoint" />
            <mxPoint x="39.860000000000014" y="65" as="targetPoint" />
          </mxGeometry>
        </mxCell>
        <mxCell id="dK6BjwZrTyGDKxUqqTmI-25" value="" style="endArrow=none;html=1;rounded=0;exitX=0;exitY=0;exitDx=0;exitDy=0;entryX=0;entryY=0;entryDx=0;entryDy=0;fillColor=#dae8fc;strokeColor=#6c8ebf;" parent="dK6BjwZrTyGDKxUqqTmI-18" source="dK6BjwZrTyGDKxUqqTmI-19" target="dK6BjwZrTyGDKxUqqTmI-20" edge="1">
          <mxGeometry width="50" height="50" relative="1" as="geometry">
            <mxPoint x="10" y="80" as="sourcePoint" />
            <mxPoint x="60" y="30" as="targetPoint" />
          </mxGeometry>
        </mxCell>
        <mxCell id="dK6BjwZrTyGDKxUqqTmI-26" value="" style="endArrow=none;html=1;rounded=0;entryX=1;entryY=1;entryDx=0;entryDy=0;exitX=1;exitY=1;exitDx=0;exitDy=0;fillColor=#dae8fc;strokeColor=#6c8ebf;" parent="dK6BjwZrTyGDKxUqqTmI-18" source="dK6BjwZrTyGDKxUqqTmI-20" target="dK6BjwZrTyGDKxUqqTmI-19" edge="1">
          <mxGeometry width="50" height="50" relative="1" as="geometry">
            <mxPoint x="65.00233047033623" y="55.322330470336226" as="sourcePoint" />
            <mxPoint x="74.67999999999995" y="65" as="targetPoint" />
          </mxGeometry>
        </mxCell>
        <mxCell id="dK6BjwZrTyGDKxUqqTmI-27" style="edgeStyle=none;rounded=0;orthogonalLoop=1;jettySize=auto;html=1;exitX=1;exitY=0;exitDx=0;exitDy=0;" parent="dK6BjwZrTyGDKxUqqTmI-18" source="dK6BjwZrTyGDKxUqqTmI-19" target="dK6BjwZrTyGDKxUqqTmI-19" edge="1">
          <mxGeometry relative="1" as="geometry" />
        </mxCell>
        <mxCell id="dK6BjwZrTyGDKxUqqTmI-28" value="" style="endArrow=none;html=1;rounded=0;entryX=1;entryY=0;entryDx=0;entryDy=0;exitX=1;exitY=0;exitDx=0;exitDy=0;fillColor=#dae8fc;strokeColor=#6c8ebf;" parent="dK6BjwZrTyGDKxUqqTmI-18" source="dK6BjwZrTyGDKxUqqTmI-20" target="dK6BjwZrTyGDKxUqqTmI-19" edge="1">
          <mxGeometry width="50" height="50" relative="1" as="geometry">
            <mxPoint x="10" y="80" as="sourcePoint" />
            <mxPoint x="60" y="30" as="targetPoint" />
          </mxGeometry>
        </mxCell>
        <mxCell id="dK6BjwZrTyGDKxUqqTmI-29" value="" style="endArrow=none;html=1;rounded=0;exitX=0;exitY=1;exitDx=0;exitDy=0;entryX=0;entryY=1;entryDx=0;entryDy=0;fillColor=#dae8fc;strokeColor=#6c8ebf;" parent="dK6BjwZrTyGDKxUqqTmI-18" source="dK6BjwZrTyGDKxUqqTmI-19" target="dK6BjwZrTyGDKxUqqTmI-20" edge="1">
          <mxGeometry width="50" height="50" relative="1" as="geometry">
            <mxPoint x="10" y="80" as="sourcePoint" />
            <mxPoint x="60" y="30" as="targetPoint" />
          </mxGeometry>
        </mxCell>
        <mxCell id="dK6BjwZrTyGDKxUqqTmI-30" value="ring" style="text;html=1;align=center;verticalAlign=middle;resizable=0;points=[];autosize=1;strokeColor=none;fillColor=none;" parent="dK6BjwZrTyGDKxUqqTmI-18" vertex="1">
          <mxGeometry x="20" y="25" width="40" height="30" as="geometry" />
        </mxCell>
        <mxCell id="dK6BjwZrTyGDKxUqqTmI-31" value="client" style="text;html=1;align=center;verticalAlign=middle;resizable=0;points=[];autosize=1;strokeColor=none;fillColor=none;" parent="1" vertex="1">
          <mxGeometry x="195" y="80" width="50" height="30" as="geometry" />
        </mxCell>
        <mxCell id="dK6BjwZrTyGDKxUqqTmI-34" value="" style="group" parent="1" vertex="1" connectable="0">
          <mxGeometry x="580" y="140" width="80" height="80" as="geometry" />
        </mxCell>
        <mxCell id="dK6BjwZrTyGDKxUqqTmI-35" value="" style="ellipse;whiteSpace=wrap;html=1;aspect=fixed;fillColor=#dae8fc;strokeColor=#6c8ebf;" parent="dK6BjwZrTyGDKxUqqTmI-34" vertex="1">
          <mxGeometry width="80" height="80" as="geometry" />
        </mxCell>
        <mxCell id="dK6BjwZrTyGDKxUqqTmI-36" value="" style="ellipse;whiteSpace=wrap;html=1;aspect=fixed;fillColor=default;strokeColor=#6c8ebf;" parent="dK6BjwZrTyGDKxUqqTmI-34" vertex="1">
          <mxGeometry x="15" y="15" width="50" height="50" as="geometry" />
        </mxCell>
        <mxCell id="dK6BjwZrTyGDKxUqqTmI-37" value="" style="endArrow=none;html=1;rounded=0;entryX=0.5;entryY=0;entryDx=0;entryDy=0;exitX=0.5;exitY=0;exitDx=0;exitDy=0;fillColor=#dae8fc;strokeColor=#6c8ebf;" parent="dK6BjwZrTyGDKxUqqTmI-34" source="dK6BjwZrTyGDKxUqqTmI-36" target="dK6BjwZrTyGDKxUqqTmI-35" edge="1">
          <mxGeometry width="50" height="50" relative="1" as="geometry">
            <mxPoint x="-160" y="60" as="sourcePoint" />
            <mxPoint x="-110" y="10" as="targetPoint" />
          </mxGeometry>
        </mxCell>
        <mxCell id="dK6BjwZrTyGDKxUqqTmI-38" value="" style="endArrow=none;html=1;rounded=0;entryX=1;entryY=0.5;entryDx=0;entryDy=0;fillColor=#dae8fc;strokeColor=#6c8ebf;" parent="dK6BjwZrTyGDKxUqqTmI-34" source="dK6BjwZrTyGDKxUqqTmI-36" target="dK6BjwZrTyGDKxUqqTmI-35" edge="1">
          <mxGeometry width="50" height="50" relative="1" as="geometry">
            <mxPoint x="10" y="80" as="sourcePoint" />
            <mxPoint x="60" y="30" as="targetPoint" />
          </mxGeometry>
        </mxCell>
        <mxCell id="dK6BjwZrTyGDKxUqqTmI-39" value="" style="endArrow=none;html=1;rounded=0;entryX=1;entryY=0.5;entryDx=0;entryDy=0;fillColor=#dae8fc;strokeColor=#6c8ebf;" parent="dK6BjwZrTyGDKxUqqTmI-34" edge="1">
          <mxGeometry width="50" height="50" relative="1" as="geometry">
            <mxPoint y="39.860000000000014" as="sourcePoint" />
            <mxPoint x="15" y="39.860000000000014" as="targetPoint" />
          </mxGeometry>
        </mxCell>
        <mxCell id="dK6BjwZrTyGDKxUqqTmI-40" value="" style="endArrow=none;html=1;rounded=0;entryX=0.5;entryY=0;entryDx=0;entryDy=0;exitX=0.5;exitY=0;exitDx=0;exitDy=0;fillColor=#dae8fc;strokeColor=#6c8ebf;" parent="dK6BjwZrTyGDKxUqqTmI-34" edge="1">
          <mxGeometry width="50" height="50" relative="1" as="geometry">
            <mxPoint x="39.860000000000014" y="80" as="sourcePoint" />
            <mxPoint x="39.860000000000014" y="65" as="targetPoint" />
          </mxGeometry>
        </mxCell>
        <mxCell id="dK6BjwZrTyGDKxUqqTmI-41" value="" style="endArrow=none;html=1;rounded=0;exitX=0;exitY=0;exitDx=0;exitDy=0;entryX=0;entryY=0;entryDx=0;entryDy=0;fillColor=#dae8fc;strokeColor=#6c8ebf;" parent="dK6BjwZrTyGDKxUqqTmI-34" source="dK6BjwZrTyGDKxUqqTmI-35" target="dK6BjwZrTyGDKxUqqTmI-36" edge="1">
          <mxGeometry width="50" height="50" relative="1" as="geometry">
            <mxPoint x="10" y="80" as="sourcePoint" />
            <mxPoint x="60" y="30" as="targetPoint" />
          </mxGeometry>
        </mxCell>
        <mxCell id="dK6BjwZrTyGDKxUqqTmI-42" value="" style="endArrow=none;html=1;rounded=0;entryX=1;entryY=1;entryDx=0;entryDy=0;exitX=1;exitY=1;exitDx=0;exitDy=0;fillColor=#dae8fc;strokeColor=#6c8ebf;" parent="dK6BjwZrTyGDKxUqqTmI-34" source="dK6BjwZrTyGDKxUqqTmI-36" target="dK6BjwZrTyGDKxUqqTmI-35" edge="1">
          <mxGeometry width="50" height="50" relative="1" as="geometry">
            <mxPoint x="65.00233047033623" y="55.322330470336226" as="sourcePoint" />
            <mxPoint x="74.67999999999995" y="65" as="targetPoint" />
          </mxGeometry>
        </mxCell>
        <mxCell id="dK6BjwZrTyGDKxUqqTmI-43" style="edgeStyle=none;rounded=0;orthogonalLoop=1;jettySize=auto;html=1;exitX=1;exitY=0;exitDx=0;exitDy=0;" parent="dK6BjwZrTyGDKxUqqTmI-34" source="dK6BjwZrTyGDKxUqqTmI-35" target="dK6BjwZrTyGDKxUqqTmI-35" edge="1">
          <mxGeometry relative="1" as="geometry" />
        </mxCell>
        <mxCell id="dK6BjwZrTyGDKxUqqTmI-44" value="" style="endArrow=none;html=1;rounded=0;entryX=1;entryY=0;entryDx=0;entryDy=0;exitX=1;exitY=0;exitDx=0;exitDy=0;fillColor=#dae8fc;strokeColor=#6c8ebf;" parent="dK6BjwZrTyGDKxUqqTmI-34" source="dK6BjwZrTyGDKxUqqTmI-36" target="dK6BjwZrTyGDKxUqqTmI-35" edge="1">
          <mxGeometry width="50" height="50" relative="1" as="geometry">
            <mxPoint x="10" y="80" as="sourcePoint" />
            <mxPoint x="60" y="30" as="targetPoint" />
          </mxGeometry>
        </mxCell>
        <mxCell id="dK6BjwZrTyGDKxUqqTmI-45" value="" style="endArrow=none;html=1;rounded=0;exitX=0;exitY=1;exitDx=0;exitDy=0;entryX=0;entryY=1;entryDx=0;entryDy=0;fillColor=#dae8fc;strokeColor=#6c8ebf;" parent="dK6BjwZrTyGDKxUqqTmI-34" source="dK6BjwZrTyGDKxUqqTmI-35" target="dK6BjwZrTyGDKxUqqTmI-36" edge="1">
          <mxGeometry width="50" height="50" relative="1" as="geometry">
            <mxPoint x="10" y="80" as="sourcePoint" />
            <mxPoint x="60" y="30" as="targetPoint" />
          </mxGeometry>
        </mxCell>
        <mxCell id="dK6BjwZrTyGDKxUqqTmI-46" value="ring" style="text;html=1;align=center;verticalAlign=middle;resizable=0;points=[];autosize=1;strokeColor=none;fillColor=none;" parent="dK6BjwZrTyGDKxUqqTmI-34" vertex="1">
          <mxGeometry x="20" y="25" width="40" height="30" as="geometry" />
        </mxCell>
        <mxCell id="dK6BjwZrTyGDKxUqqTmI-47" value="" style="group" parent="1" vertex="1" connectable="0">
          <mxGeometry x="580" y="250" width="80" height="80" as="geometry" />
        </mxCell>
        <mxCell id="dK6BjwZrTyGDKxUqqTmI-48" value="" style="ellipse;whiteSpace=wrap;html=1;aspect=fixed;fillColor=#dae8fc;strokeColor=#6c8ebf;" parent="dK6BjwZrTyGDKxUqqTmI-47" vertex="1">
          <mxGeometry width="80" height="80" as="geometry" />
        </mxCell>
        <mxCell id="dK6BjwZrTyGDKxUqqTmI-49" value="" style="ellipse;whiteSpace=wrap;html=1;aspect=fixed;fillColor=default;strokeColor=#6c8ebf;" parent="dK6BjwZrTyGDKxUqqTmI-47" vertex="1">
          <mxGeometry x="15" y="15" width="50" height="50" as="geometry" />
        </mxCell>
        <mxCell id="dK6BjwZrTyGDKxUqqTmI-50" value="" style="endArrow=none;html=1;rounded=0;entryX=0.5;entryY=0;entryDx=0;entryDy=0;exitX=0.5;exitY=0;exitDx=0;exitDy=0;fillColor=#dae8fc;strokeColor=#6c8ebf;" parent="dK6BjwZrTyGDKxUqqTmI-47" source="dK6BjwZrTyGDKxUqqTmI-49" target="dK6BjwZrTyGDKxUqqTmI-48" edge="1">
          <mxGeometry width="50" height="50" relative="1" as="geometry">
            <mxPoint x="-160" y="60" as="sourcePoint" />
            <mxPoint x="-110" y="10" as="targetPoint" />
          </mxGeometry>
        </mxCell>
        <mxCell id="dK6BjwZrTyGDKxUqqTmI-51" value="" style="endArrow=none;html=1;rounded=0;entryX=1;entryY=0.5;entryDx=0;entryDy=0;fillColor=#dae8fc;strokeColor=#6c8ebf;" parent="dK6BjwZrTyGDKxUqqTmI-47" source="dK6BjwZrTyGDKxUqqTmI-49" target="dK6BjwZrTyGDKxUqqTmI-48" edge="1">
          <mxGeometry width="50" height="50" relative="1" as="geometry">
            <mxPoint x="10" y="80" as="sourcePoint" />
            <mxPoint x="60" y="30" as="targetPoint" />
          </mxGeometry>
        </mxCell>
        <mxCell id="dK6BjwZrTyGDKxUqqTmI-52" value="" style="endArrow=none;html=1;rounded=0;entryX=1;entryY=0.5;entryDx=0;entryDy=0;fillColor=#dae8fc;strokeColor=#6c8ebf;" parent="dK6BjwZrTyGDKxUqqTmI-47" edge="1">
          <mxGeometry width="50" height="50" relative="1" as="geometry">
            <mxPoint y="39.860000000000014" as="sourcePoint" />
            <mxPoint x="15" y="39.860000000000014" as="targetPoint" />
          </mxGeometry>
        </mxCell>
        <mxCell id="dK6BjwZrTyGDKxUqqTmI-53" value="" style="endArrow=none;html=1;rounded=0;entryX=0.5;entryY=0;entryDx=0;entryDy=0;exitX=0.5;exitY=0;exitDx=0;exitDy=0;fillColor=#dae8fc;strokeColor=#6c8ebf;" parent="dK6BjwZrTyGDKxUqqTmI-47" edge="1">
          <mxGeometry width="50" height="50" relative="1" as="geometry">
            <mxPoint x="39.860000000000014" y="80" as="sourcePoint" />
            <mxPoint x="39.860000000000014" y="65" as="targetPoint" />
          </mxGeometry>
        </mxCell>
        <mxCell id="dK6BjwZrTyGDKxUqqTmI-54" value="" style="endArrow=none;html=1;rounded=0;exitX=0;exitY=0;exitDx=0;exitDy=0;entryX=0;entryY=0;entryDx=0;entryDy=0;fillColor=#dae8fc;strokeColor=#6c8ebf;" parent="dK6BjwZrTyGDKxUqqTmI-47" source="dK6BjwZrTyGDKxUqqTmI-48" target="dK6BjwZrTyGDKxUqqTmI-49" edge="1">
          <mxGeometry width="50" height="50" relative="1" as="geometry">
            <mxPoint x="10" y="80" as="sourcePoint" />
            <mxPoint x="60" y="30" as="targetPoint" />
          </mxGeometry>
        </mxCell>
        <mxCell id="dK6BjwZrTyGDKxUqqTmI-55" value="" style="endArrow=none;html=1;rounded=0;entryX=1;entryY=1;entryDx=0;entryDy=0;exitX=1;exitY=1;exitDx=0;exitDy=0;fillColor=#dae8fc;strokeColor=#6c8ebf;" parent="dK6BjwZrTyGDKxUqqTmI-47" source="dK6BjwZrTyGDKxUqqTmI-49" target="dK6BjwZrTyGDKxUqqTmI-48" edge="1">
          <mxGeometry width="50" height="50" relative="1" as="geometry">
            <mxPoint x="65.00233047033623" y="55.322330470336226" as="sourcePoint" />
            <mxPoint x="74.67999999999995" y="65" as="targetPoint" />
          </mxGeometry>
        </mxCell>
        <mxCell id="dK6BjwZrTyGDKxUqqTmI-56" style="edgeStyle=none;rounded=0;orthogonalLoop=1;jettySize=auto;html=1;exitX=1;exitY=0;exitDx=0;exitDy=0;" parent="dK6BjwZrTyGDKxUqqTmI-47" source="dK6BjwZrTyGDKxUqqTmI-48" target="dK6BjwZrTyGDKxUqqTmI-48" edge="1">
          <mxGeometry relative="1" as="geometry" />
        </mxCell>
        <mxCell id="dK6BjwZrTyGDKxUqqTmI-57" value="" style="endArrow=none;html=1;rounded=0;entryX=1;entryY=0;entryDx=0;entryDy=0;exitX=1;exitY=0;exitDx=0;exitDy=0;fillColor=#dae8fc;strokeColor=#6c8ebf;" parent="dK6BjwZrTyGDKxUqqTmI-47" source="dK6BjwZrTyGDKxUqqTmI-49" target="dK6BjwZrTyGDKxUqqTmI-48" edge="1">
          <mxGeometry width="50" height="50" relative="1" as="geometry">
            <mxPoint x="10" y="80" as="sourcePoint" />
            <mxPoint x="60" y="30" as="targetPoint" />
          </mxGeometry>
        </mxCell>
        <mxCell id="dK6BjwZrTyGDKxUqqTmI-58" value="" style="endArrow=none;html=1;rounded=0;exitX=0;exitY=1;exitDx=0;exitDy=0;entryX=0;entryY=1;entryDx=0;entryDy=0;fillColor=#dae8fc;strokeColor=#6c8ebf;" parent="dK6BjwZrTyGDKxUqqTmI-47" source="dK6BjwZrTyGDKxUqqTmI-48" target="dK6BjwZrTyGDKxUqqTmI-49" edge="1">
          <mxGeometry width="50" height="50" relative="1" as="geometry">
            <mxPoint x="10" y="80" as="sourcePoint" />
            <mxPoint x="60" y="30" as="targetPoint" />
          </mxGeometry>
        </mxCell>
        <mxCell id="dK6BjwZrTyGDKxUqqTmI-59" value="ring" style="text;html=1;align=center;verticalAlign=middle;resizable=0;points=[];autosize=1;strokeColor=none;fillColor=none;" parent="dK6BjwZrTyGDKxUqqTmI-47" vertex="1">
          <mxGeometry x="20" y="25" width="40" height="30" as="geometry" />
        </mxCell>
        <mxCell id="dK6BjwZrTyGDKxUqqTmI-60" value="server" style="text;html=1;align=center;verticalAlign=middle;resizable=0;points=[];autosize=1;strokeColor=none;fillColor=none;" parent="1" vertex="1">
          <mxGeometry x="590" y="80" width="60" height="30" as="geometry" />
        </mxCell>
        <mxCell id="dK6BjwZrTyGDKxUqqTmI-61" value="" style="rounded=0;whiteSpace=wrap;html=1;fillColor=#fff2cc;strokeColor=#d6b656;" parent="1" vertex="1">
          <mxGeometry x="120" y="390" width="200" height="170" as="geometry" />
        </mxCell>
        <mxCell id="dK6BjwZrTyGDKxUqqTmI-62" value="" style="rounded=0;whiteSpace=wrap;html=1;fillColor=#f9f7ed;strokeColor=#36393d;" parent="1" vertex="1">
          <mxGeometry x="140" y="430" width="160" height="120" as="geometry" />
        </mxCell>
        <mxCell id="dK6BjwZrTyGDKxUqqTmI-63" value="" style="group" parent="1" vertex="1" connectable="0">
          <mxGeometry x="180" y="450" width="80" height="80" as="geometry" />
        </mxCell>
        <mxCell id="dK6BjwZrTyGDKxUqqTmI-64" value="" style="ellipse;whiteSpace=wrap;html=1;aspect=fixed;fillColor=#dae8fc;strokeColor=#6c8ebf;" parent="dK6BjwZrTyGDKxUqqTmI-63" vertex="1">
          <mxGeometry width="80" height="80" as="geometry" />
        </mxCell>
        <mxCell id="dK6BjwZrTyGDKxUqqTmI-65" value="" style="ellipse;whiteSpace=wrap;html=1;aspect=fixed;fillColor=default;strokeColor=#6c8ebf;" parent="dK6BjwZrTyGDKxUqqTmI-63" vertex="1">
          <mxGeometry x="15" y="15" width="50" height="50" as="geometry" />
        </mxCell>
        <mxCell id="dK6BjwZrTyGDKxUqqTmI-66" value="" style="endArrow=none;html=1;rounded=0;entryX=0.5;entryY=0;entryDx=0;entryDy=0;exitX=0.5;exitY=0;exitDx=0;exitDy=0;fillColor=#dae8fc;strokeColor=#6c8ebf;" parent="dK6BjwZrTyGDKxUqqTmI-63" source="dK6BjwZrTyGDKxUqqTmI-65" target="dK6BjwZrTyGDKxUqqTmI-64" edge="1">
          <mxGeometry width="50" height="50" relative="1" as="geometry">
            <mxPoint x="-160" y="60" as="sourcePoint" />
            <mxPoint x="-110" y="10" as="targetPoint" />
          </mxGeometry>
        </mxCell>
        <mxCell id="dK6BjwZrTyGDKxUqqTmI-67" value="" style="endArrow=none;html=1;rounded=0;entryX=1;entryY=0.5;entryDx=0;entryDy=0;fillColor=#dae8fc;strokeColor=#6c8ebf;" parent="dK6BjwZrTyGDKxUqqTmI-63" source="dK6BjwZrTyGDKxUqqTmI-65" target="dK6BjwZrTyGDKxUqqTmI-64" edge="1">
          <mxGeometry width="50" height="50" relative="1" as="geometry">
            <mxPoint x="10" y="80" as="sourcePoint" />
            <mxPoint x="60" y="30" as="targetPoint" />
          </mxGeometry>
        </mxCell>
        <mxCell id="dK6BjwZrTyGDKxUqqTmI-68" value="" style="endArrow=none;html=1;rounded=0;entryX=1;entryY=0.5;entryDx=0;entryDy=0;fillColor=#dae8fc;strokeColor=#6c8ebf;" parent="dK6BjwZrTyGDKxUqqTmI-63" edge="1">
          <mxGeometry width="50" height="50" relative="1" as="geometry">
            <mxPoint y="39.860000000000014" as="sourcePoint" />
            <mxPoint x="15" y="39.860000000000014" as="targetPoint" />
          </mxGeometry>
        </mxCell>
        <mxCell id="dK6BjwZrTyGDKxUqqTmI-69" value="" style="endArrow=none;html=1;rounded=0;entryX=0.5;entryY=0;entryDx=0;entryDy=0;exitX=0.5;exitY=0;exitDx=0;exitDy=0;fillColor=#dae8fc;strokeColor=#6c8ebf;" parent="dK6BjwZrTyGDKxUqqTmI-63" edge="1">
          <mxGeometry width="50" height="50" relative="1" as="geometry">
            <mxPoint x="39.860000000000014" y="80" as="sourcePoint" />
            <mxPoint x="39.860000000000014" y="65" as="targetPoint" />
          </mxGeometry>
        </mxCell>
        <mxCell id="dK6BjwZrTyGDKxUqqTmI-70" value="" style="endArrow=none;html=1;rounded=0;exitX=0;exitY=0;exitDx=0;exitDy=0;entryX=0;entryY=0;entryDx=0;entryDy=0;fillColor=#dae8fc;strokeColor=#6c8ebf;" parent="dK6BjwZrTyGDKxUqqTmI-63" source="dK6BjwZrTyGDKxUqqTmI-64" target="dK6BjwZrTyGDKxUqqTmI-65" edge="1">
          <mxGeometry width="50" height="50" relative="1" as="geometry">
            <mxPoint x="10" y="80" as="sourcePoint" />
            <mxPoint x="60" y="30" as="targetPoint" />
          </mxGeometry>
        </mxCell>
        <mxCell id="dK6BjwZrTyGDKxUqqTmI-71" value="" style="endArrow=none;html=1;rounded=0;entryX=1;entryY=1;entryDx=0;entryDy=0;exitX=1;exitY=1;exitDx=0;exitDy=0;fillColor=#dae8fc;strokeColor=#6c8ebf;" parent="dK6BjwZrTyGDKxUqqTmI-63" source="dK6BjwZrTyGDKxUqqTmI-65" target="dK6BjwZrTyGDKxUqqTmI-64" edge="1">
          <mxGeometry width="50" height="50" relative="1" as="geometry">
            <mxPoint x="65.00233047033623" y="55.322330470336226" as="sourcePoint" />
            <mxPoint x="74.67999999999995" y="65" as="targetPoint" />
          </mxGeometry>
        </mxCell>
        <mxCell id="dK6BjwZrTyGDKxUqqTmI-72" style="edgeStyle=none;rounded=0;orthogonalLoop=1;jettySize=auto;html=1;exitX=1;exitY=0;exitDx=0;exitDy=0;" parent="dK6BjwZrTyGDKxUqqTmI-63" source="dK6BjwZrTyGDKxUqqTmI-64" target="dK6BjwZrTyGDKxUqqTmI-64" edge="1">
          <mxGeometry relative="1" as="geometry" />
        </mxCell>
        <mxCell id="dK6BjwZrTyGDKxUqqTmI-73" value="" style="endArrow=none;html=1;rounded=0;entryX=1;entryY=0;entryDx=0;entryDy=0;exitX=1;exitY=0;exitDx=0;exitDy=0;fillColor=#dae8fc;strokeColor=#6c8ebf;" parent="dK6BjwZrTyGDKxUqqTmI-63" source="dK6BjwZrTyGDKxUqqTmI-65" target="dK6BjwZrTyGDKxUqqTmI-64" edge="1">
          <mxGeometry width="50" height="50" relative="1" as="geometry">
            <mxPoint x="10" y="80" as="sourcePoint" />
            <mxPoint x="60" y="30" as="targetPoint" />
          </mxGeometry>
        </mxCell>
        <mxCell id="dK6BjwZrTyGDKxUqqTmI-74" value="" style="endArrow=none;html=1;rounded=0;exitX=0;exitY=1;exitDx=0;exitDy=0;entryX=0;entryY=1;entryDx=0;entryDy=0;fillColor=#dae8fc;strokeColor=#6c8ebf;" parent="dK6BjwZrTyGDKxUqqTmI-63" source="dK6BjwZrTyGDKxUqqTmI-64" target="dK6BjwZrTyGDKxUqqTmI-65" edge="1">
          <mxGeometry width="50" height="50" relative="1" as="geometry">
            <mxPoint x="10" y="80" as="sourcePoint" />
            <mxPoint x="60" y="30" as="targetPoint" />
          </mxGeometry>
        </mxCell>
        <mxCell id="dK6BjwZrTyGDKxUqqTmI-75" value="ring" style="text;html=1;align=center;verticalAlign=middle;resizable=0;points=[];autosize=1;strokeColor=none;fillColor=none;" parent="dK6BjwZrTyGDKxUqqTmI-63" vertex="1">
          <mxGeometry x="20" y="25" width="40" height="30" as="geometry" />
        </mxCell>
        <mxCell id="dK6BjwZrTyGDKxUqqTmI-89" value="client" style="text;html=1;align=center;verticalAlign=middle;resizable=0;points=[];autosize=1;strokeColor=none;fillColor=none;" parent="1" vertex="1">
          <mxGeometry x="195" y="390" width="50" height="30" as="geometry" />
        </mxCell>
        <mxCell id="dK6BjwZrTyGDKxUqqTmI-91" value="" style="group" parent="1" vertex="1" connectable="0">
          <mxGeometry x="580" y="360" width="80" height="80" as="geometry" />
        </mxCell>
        <mxCell id="dK6BjwZrTyGDKxUqqTmI-92" value="" style="ellipse;whiteSpace=wrap;html=1;aspect=fixed;fillColor=#dae8fc;strokeColor=#6c8ebf;" parent="dK6BjwZrTyGDKxUqqTmI-91" vertex="1">
          <mxGeometry width="80" height="80" as="geometry" />
        </mxCell>
        <mxCell id="dK6BjwZrTyGDKxUqqTmI-93" value="" style="ellipse;whiteSpace=wrap;html=1;aspect=fixed;fillColor=default;strokeColor=#6c8ebf;" parent="dK6BjwZrTyGDKxUqqTmI-91" vertex="1">
          <mxGeometry x="15" y="15" width="50" height="50" as="geometry" />
        </mxCell>
        <mxCell id="dK6BjwZrTyGDKxUqqTmI-94" value="" style="endArrow=none;html=1;rounded=0;entryX=0.5;entryY=0;entryDx=0;entryDy=0;exitX=0.5;exitY=0;exitDx=0;exitDy=0;fillColor=#dae8fc;strokeColor=#6c8ebf;" parent="dK6BjwZrTyGDKxUqqTmI-91" source="dK6BjwZrTyGDKxUqqTmI-93" target="dK6BjwZrTyGDKxUqqTmI-92" edge="1">
          <mxGeometry width="50" height="50" relative="1" as="geometry">
            <mxPoint x="-160" y="60" as="sourcePoint" />
            <mxPoint x="-110" y="10" as="targetPoint" />
          </mxGeometry>
        </mxCell>
        <mxCell id="dK6BjwZrTyGDKxUqqTmI-95" value="" style="endArrow=none;html=1;rounded=0;entryX=1;entryY=0.5;entryDx=0;entryDy=0;fillColor=#dae8fc;strokeColor=#6c8ebf;" parent="dK6BjwZrTyGDKxUqqTmI-91" source="dK6BjwZrTyGDKxUqqTmI-93" target="dK6BjwZrTyGDKxUqqTmI-92" edge="1">
          <mxGeometry width="50" height="50" relative="1" as="geometry">
            <mxPoint x="10" y="80" as="sourcePoint" />
            <mxPoint x="60" y="30" as="targetPoint" />
          </mxGeometry>
        </mxCell>
        <mxCell id="dK6BjwZrTyGDKxUqqTmI-96" value="" style="endArrow=none;html=1;rounded=0;entryX=1;entryY=0.5;entryDx=0;entryDy=0;fillColor=#dae8fc;strokeColor=#6c8ebf;" parent="dK6BjwZrTyGDKxUqqTmI-91" edge="1">
          <mxGeometry width="50" height="50" relative="1" as="geometry">
            <mxPoint y="39.860000000000014" as="sourcePoint" />
            <mxPoint x="15" y="39.860000000000014" as="targetPoint" />
          </mxGeometry>
        </mxCell>
        <mxCell id="dK6BjwZrTyGDKxUqqTmI-97" value="" style="endArrow=none;html=1;rounded=0;entryX=0.5;entryY=0;entryDx=0;entryDy=0;exitX=0.5;exitY=0;exitDx=0;exitDy=0;fillColor=#dae8fc;strokeColor=#6c8ebf;" parent="dK6BjwZrTyGDKxUqqTmI-91" edge="1">
          <mxGeometry width="50" height="50" relative="1" as="geometry">
            <mxPoint x="39.860000000000014" y="80" as="sourcePoint" />
            <mxPoint x="39.860000000000014" y="65" as="targetPoint" />
          </mxGeometry>
        </mxCell>
        <mxCell id="dK6BjwZrTyGDKxUqqTmI-98" value="" style="endArrow=none;html=1;rounded=0;exitX=0;exitY=0;exitDx=0;exitDy=0;entryX=0;entryY=0;entryDx=0;entryDy=0;fillColor=#dae8fc;strokeColor=#6c8ebf;" parent="dK6BjwZrTyGDKxUqqTmI-91" source="dK6BjwZrTyGDKxUqqTmI-92" target="dK6BjwZrTyGDKxUqqTmI-93" edge="1">
          <mxGeometry width="50" height="50" relative="1" as="geometry">
            <mxPoint x="10" y="80" as="sourcePoint" />
            <mxPoint x="60" y="30" as="targetPoint" />
          </mxGeometry>
        </mxCell>
        <mxCell id="dK6BjwZrTyGDKxUqqTmI-99" value="" style="endArrow=none;html=1;rounded=0;entryX=1;entryY=1;entryDx=0;entryDy=0;exitX=1;exitY=1;exitDx=0;exitDy=0;fillColor=#dae8fc;strokeColor=#6c8ebf;" parent="dK6BjwZrTyGDKxUqqTmI-91" source="dK6BjwZrTyGDKxUqqTmI-93" target="dK6BjwZrTyGDKxUqqTmI-92" edge="1">
          <mxGeometry width="50" height="50" relative="1" as="geometry">
            <mxPoint x="65.00233047033623" y="55.322330470336226" as="sourcePoint" />
            <mxPoint x="74.67999999999995" y="65" as="targetPoint" />
          </mxGeometry>
        </mxCell>
        <mxCell id="dK6BjwZrTyGDKxUqqTmI-100" style="edgeStyle=none;rounded=0;orthogonalLoop=1;jettySize=auto;html=1;exitX=1;exitY=0;exitDx=0;exitDy=0;" parent="dK6BjwZrTyGDKxUqqTmI-91" source="dK6BjwZrTyGDKxUqqTmI-92" target="dK6BjwZrTyGDKxUqqTmI-92" edge="1">
          <mxGeometry relative="1" as="geometry" />
        </mxCell>
        <mxCell id="dK6BjwZrTyGDKxUqqTmI-101" value="" style="endArrow=none;html=1;rounded=0;entryX=1;entryY=0;entryDx=0;entryDy=0;exitX=1;exitY=0;exitDx=0;exitDy=0;fillColor=#dae8fc;strokeColor=#6c8ebf;" parent="dK6BjwZrTyGDKxUqqTmI-91" source="dK6BjwZrTyGDKxUqqTmI-93" target="dK6BjwZrTyGDKxUqqTmI-92" edge="1">
          <mxGeometry width="50" height="50" relative="1" as="geometry">
            <mxPoint x="10" y="80" as="sourcePoint" />
            <mxPoint x="60" y="30" as="targetPoint" />
          </mxGeometry>
        </mxCell>
        <mxCell id="dK6BjwZrTyGDKxUqqTmI-102" value="" style="endArrow=none;html=1;rounded=0;exitX=0;exitY=1;exitDx=0;exitDy=0;entryX=0;entryY=1;entryDx=0;entryDy=0;fillColor=#dae8fc;strokeColor=#6c8ebf;" parent="dK6BjwZrTyGDKxUqqTmI-91" source="dK6BjwZrTyGDKxUqqTmI-92" target="dK6BjwZrTyGDKxUqqTmI-93" edge="1">
          <mxGeometry width="50" height="50" relative="1" as="geometry">
            <mxPoint x="10" y="80" as="sourcePoint" />
            <mxPoint x="60" y="30" as="targetPoint" />
          </mxGeometry>
        </mxCell>
        <mxCell id="dK6BjwZrTyGDKxUqqTmI-103" value="ring" style="text;html=1;align=center;verticalAlign=middle;resizable=0;points=[];autosize=1;strokeColor=none;fillColor=none;" parent="dK6BjwZrTyGDKxUqqTmI-91" vertex="1">
          <mxGeometry x="20" y="25" width="40" height="30" as="geometry" />
        </mxCell>
        <mxCell id="dK6BjwZrTyGDKxUqqTmI-107" value="&lt;font style=&quot;font-size: 24px;&quot;&gt;...&lt;/font&gt;" style="text;html=1;align=center;verticalAlign=middle;resizable=0;points=[];autosize=1;strokeColor=none;fillColor=none;" parent="1" vertex="1">
          <mxGeometry x="600" y="470" width="40" height="40" as="geometry" />
        </mxCell>
        <mxCell id="dK6BjwZrTyGDKxUqqTmI-108" value="" style="rounded=0;whiteSpace=wrap;html=1;fillColor=#f9f7ed;strokeColor=#36393d;" parent="1" vertex="1">
          <mxGeometry x="330" y="170" width="180" height="20" as="geometry" />
        </mxCell>
        <mxCell id="dK6BjwZrTyGDKxUqqTmI-109" value="" style="rounded=0;whiteSpace=wrap;html=1;fillColor=#f9f7ed;strokeColor=#36393d;" parent="1" vertex="1">
          <mxGeometry x="330" y="170" width="30" height="20" as="geometry" />
        </mxCell>
        <mxCell id="dK6BjwZrTyGDKxUqqTmI-113" value="" style="rounded=0;whiteSpace=wrap;html=1;fillColor=#f9f7ed;strokeColor=#36393d;" parent="1" vertex="1">
          <mxGeometry x="480" y="170" width="30" height="20" as="geometry" />
        </mxCell>
        <mxCell id="dK6BjwZrTyGDKxUqqTmI-121" style="edgeStyle=orthogonalEdgeStyle;rounded=0;orthogonalLoop=1;jettySize=auto;html=1;exitX=0.709;exitY=0.039;exitDx=0;exitDy=0;entryX=0.5;entryY=0;entryDx=0;entryDy=0;exitPerimeter=0;curved=1;" parent="1" source="dK6BjwZrTyGDKxUqqTmI-3" target="dK6BjwZrTyGDKxUqqTmI-109" edge="1">
          <mxGeometry relative="1" as="geometry">
            <Array as="points">
              <mxPoint x="345" y="143" />
            </Array>
          </mxGeometry>
        </mxCell>
        <mxCell id="dK6BjwZrTyGDKxUqqTmI-123" style="edgeStyle=orthogonalEdgeStyle;rounded=0;orthogonalLoop=1;jettySize=auto;html=1;entryX=0.917;entryY=0.004;entryDx=0;entryDy=0;exitX=0.303;exitY=0.043;exitDx=0;exitDy=0;exitPerimeter=0;curved=1;entryPerimeter=0;" parent="1" source="dK6BjwZrTyGDKxUqqTmI-35" target="dK6BjwZrTyGDKxUqqTmI-108" edge="1">
          <mxGeometry relative="1" as="geometry">
            <mxPoint x="600" y="144" as="sourcePoint" />
          </mxGeometry>
        </mxCell>
        <mxCell id="dK6BjwZrTyGDKxUqqTmI-125" value="ring pt" style="text;html=1;align=center;verticalAlign=middle;resizable=0;points=[];autosize=1;strokeColor=none;fillColor=none;" parent="1" vertex="1">
          <mxGeometry x="135" y="120" width="60" height="30" as="geometry" />
        </mxCell>
        <mxCell id="dK6BjwZrTyGDKxUqqTmI-126" value="ring pt" style="text;html=1;align=center;verticalAlign=middle;resizable=0;points=[];autosize=1;strokeColor=none;fillColor=none;" parent="1" vertex="1">
          <mxGeometry x="640" y="120" width="60" height="30" as="geometry" />
        </mxCell>
        <mxCell id="dK6BjwZrTyGDKxUqqTmI-128" value="data pt" style="text;html=1;align=center;verticalAlign=middle;resizable=0;points=[];autosize=1;strokeColor=none;fillColor=none;" parent="1" vertex="1">
          <mxGeometry x="390" y="165" width="60" height="30" as="geometry" />
        </mxCell>
        <mxCell id="dK6BjwZrTyGDKxUqqTmI-129" value="" style="rounded=0;whiteSpace=wrap;html=1;fillColor=#f9f7ed;strokeColor=#36393d;" parent="1" vertex="1">
          <mxGeometry x="330" y="280" width="180" height="20" as="geometry" />
        </mxCell>
        <mxCell id="dK6BjwZrTyGDKxUqqTmI-130" value="" style="rounded=0;whiteSpace=wrap;html=1;fillColor=#f9f7ed;strokeColor=#36393d;" parent="1" vertex="1">
          <mxGeometry x="330" y="280" width="30" height="20" as="geometry" />
        </mxCell>
        <mxCell id="dK6BjwZrTyGDKxUqqTmI-131" value="" style="rounded=0;whiteSpace=wrap;html=1;fillColor=#f9f7ed;strokeColor=#36393d;" parent="1" vertex="1">
          <mxGeometry x="480" y="280" width="30" height="20" as="geometry" />
        </mxCell>
        <mxCell id="dK6BjwZrTyGDKxUqqTmI-132" value="data pt" style="text;html=1;align=center;verticalAlign=middle;resizable=0;points=[];autosize=1;strokeColor=none;fillColor=none;" parent="1" vertex="1">
          <mxGeometry x="390" y="275" width="60" height="30" as="geometry" />
        </mxCell>
        <mxCell id="dK6BjwZrTyGDKxUqqTmI-133" style="edgeStyle=orthogonalEdgeStyle;rounded=0;orthogonalLoop=1;jettySize=auto;html=1;entryX=0.5;entryY=0;entryDx=0;entryDy=0;curved=1;exitX=0.723;exitY=0.065;exitDx=0;exitDy=0;exitPerimeter=0;" parent="1" source="dK6BjwZrTyGDKxUqqTmI-19" edge="1">
          <mxGeometry relative="1" as="geometry">
            <mxPoint x="250" y="253" as="sourcePoint" />
            <mxPoint x="348" y="280" as="targetPoint" />
            <Array as="points">
              <mxPoint x="238" y="253" />
              <mxPoint x="348" y="253" />
            </Array>
          </mxGeometry>
        </mxCell>
        <mxCell id="dK6BjwZrTyGDKxUqqTmI-134" style="edgeStyle=orthogonalEdgeStyle;rounded=0;orthogonalLoop=1;jettySize=auto;html=1;entryX=0.917;entryY=0.004;entryDx=0;entryDy=0;exitX=0.296;exitY=0.048;exitDx=0;exitDy=0;exitPerimeter=0;curved=1;entryPerimeter=0;" parent="1" source="dK6BjwZrTyGDKxUqqTmI-48" edge="1">
          <mxGeometry relative="1" as="geometry">
            <mxPoint x="609" y="253" as="sourcePoint" />
            <mxPoint x="500" y="280" as="targetPoint" />
            <Array as="points">
              <mxPoint x="604" y="250" />
              <mxPoint x="500" y="250" />
            </Array>
          </mxGeometry>
        </mxCell>
        <mxCell id="dK6BjwZrTyGDKxUqqTmI-135" value="" style="rounded=0;whiteSpace=wrap;html=1;fillColor=#f9f7ed;strokeColor=#36393d;" parent="1" vertex="1">
          <mxGeometry x="330" y="480" width="180" height="20" as="geometry" />
        </mxCell>
        <mxCell id="dK6BjwZrTyGDKxUqqTmI-136" value="" style="rounded=0;whiteSpace=wrap;html=1;fillColor=#f9f7ed;strokeColor=#36393d;" parent="1" vertex="1">
          <mxGeometry x="330" y="480" width="30" height="20" as="geometry" />
        </mxCell>
        <mxCell id="dK6BjwZrTyGDKxUqqTmI-137" value="" style="rounded=0;whiteSpace=wrap;html=1;fillColor=#f9f7ed;strokeColor=#36393d;" parent="1" vertex="1">
          <mxGeometry x="480" y="480" width="30" height="20" as="geometry" />
        </mxCell>
        <mxCell id="dK6BjwZrTyGDKxUqqTmI-138" value="data pt" style="text;html=1;align=center;verticalAlign=middle;resizable=0;points=[];autosize=1;strokeColor=none;fillColor=none;" parent="1" vertex="1">
          <mxGeometry x="390" y="475" width="60" height="30" as="geometry" />
        </mxCell>
        <mxCell id="dK6BjwZrTyGDKxUqqTmI-139" style="edgeStyle=orthogonalEdgeStyle;rounded=0;orthogonalLoop=1;jettySize=auto;html=1;entryX=0.5;entryY=0;entryDx=0;entryDy=0;curved=1;exitX=0.723;exitY=0.065;exitDx=0;exitDy=0;exitPerimeter=0;" parent="1" edge="1">
          <mxGeometry relative="1" as="geometry">
            <mxPoint x="240" y="455" as="sourcePoint" />
            <mxPoint x="350" y="480" as="targetPoint" />
            <Array as="points">
              <mxPoint x="240" y="453" />
              <mxPoint x="350" y="453" />
            </Array>
          </mxGeometry>
        </mxCell>
        <mxCell id="dK6BjwZrTyGDKxUqqTmI-140" style="edgeStyle=orthogonalEdgeStyle;rounded=0;orthogonalLoop=1;jettySize=auto;html=1;entryX=0.917;entryY=0.004;entryDx=0;entryDy=0;curved=1;entryPerimeter=0;exitX=0.303;exitY=0.065;exitDx=0;exitDy=0;exitPerimeter=0;" parent="1" source="dK6BjwZrTyGDKxUqqTmI-92" edge="1">
          <mxGeometry relative="1" as="geometry">
            <mxPoint x="600" y="454" as="sourcePoint" />
            <mxPoint x="496" y="480" as="targetPoint" />
            <Array as="points">
              <mxPoint x="496" y="365" />
            </Array>
          </mxGeometry>
        </mxCell>
      </root>
    </mxGraphModel>
  </diagram>
</mxfile>
